<?xml version="1.0" encoding="UTF-8"?>
<svg id="Layer_2" data-name="Layer 2" xmlns="http://www.w3.org/2000/svg" viewBox="0 0 276 276">
  <defs>
    <style>
      .cls-1 {
        fill: #1e2926;
      }

      .cls-2 {
        fill: #30191b;
      }

      .cls-3 {
        fill: #fdc743;
      }

      .cls-4 {
        fill: #ef7b88;
      }

      .cls-5 {
        fill: #3b534d;
      }

      .cls-6 {
        fill: #94cfc0;
      }

      .cls-7 {
        fill: #33280d;
      }
    </style>
  </defs>
  <polygon class="cls-1" points="43.99 45.28 43.71 50.01 48.72 45 43.99 45.28"/>
  <polygon class="cls-1" points="231.76 45.23 227.03 44.95 232.04 49.95 231.76 45.23"/>
  <g>
    <circle class="cls-6" cx="138" cy="138" r="136.47"/>
    <circle class="cls-3" cx="138" cy="138" r="78.17"/>
    <circle class="cls-4" cx="138" cy="138" r="55.27"/>
    <g>
      <g>
        <path class="cls-5" d="M9.06,138.48h-1c-.22,0-.4-.18-.4-.4s.18-.4.4-.4h1c.22,0,.4.18.4.4s-.18.4-.4.4Z"/>
        <path class="cls-5" d="M261.51,138.48h-2c-.22,0-.4-.18-.4-.4s.18-.4.4-.4h2c.22,0,.4.18.4.4s-.18.4-.4.4ZM254.5,138.48h-2c-.22,0-.4-.18-.4-.4s.18-.4.4-.4h2c.22,0,.4.18.4.4s-.18.4-.4.4ZM233.46,138.48h-2c-.22,0-.4-.18-.4-.4s.18-.4.4-.4h2c.22,0,.4.18.4.4s-.18.4-.4.4ZM226.45,138.48h-2c-.22,0-.4-.18-.4-.4s.18-.4.4-.4h2c.22,0,.4.18.4.4s-.18.4-.4.4ZM219.43,138.48h-2c-.22,0-.4-.18-.4-.4s.18-.4.4-.4h2c.22,0,.4.18.4.4s-.18.4-.4.4ZM212.42,138.48h-2c-.22,0-.4-.18-.4-.4s.18-.4.4-.4h2c.22,0,.4.18.4.4s-.18.4-.4.4ZM198.4,138.48h-2c-.22,0-.4-.18-.4-.4s.18-.4.4-.4h2c.22,0,.4.18.4.4s-.18.4-.4.4ZM191.38,138.48h-2c-.22,0-.4-.18-.4-.4s.18-.4.4-.4h2c.22,0,.4.18.4.4s-.18.4-.4.4ZM184.37,138.48h-2c-.22,0-.4-.18-.4-.4s.18-.4.4-.4h2c.22,0,.4.18.4.4s-.18.4-.4.4ZM93.21,138.48h-2c-.22,0-.4-.18-.4-.4s.18-.4.4-.4h2c.22,0,.4.18.4.4s-.18.4-.4.4ZM86.2,138.48h-2c-.22,0-.4-.18-.4-.4s.18-.4.4-.4h2c.22,0,.4.18.4.4s-.18.4-.4.4ZM79.19,138.48h-2c-.22,0-.4-.18-.4-.4s.18-.4.4-.4h2c.22,0,.4.18.4.4s-.18.4-.4.4ZM65.16,138.48h-2c-.22,0-.4-.18-.4-.4s.18-.4.4-.4h2c.22,0,.4.18.4.4s-.18.4-.4.4ZM58.15,138.48h-2c-.22,0-.4-.18-.4-.4s.18-.4.4-.4h2c.22,0,.4.18.4.4s-.18.4-.4.4ZM51.14,138.48h-2c-.22,0-.4-.18-.4-.4s.18-.4.4-.4h2c.22,0,.4.18.4.4s-.18.4-.4.4ZM44.12,138.48h-2c-.22,0-.4-.18-.4-.4s.18-.4.4-.4h2c.22,0,.4.18.4.4s-.18.4-.4.4ZM23.09,138.48h-2c-.22,0-.4-.18-.4-.4s.18-.4.4-.4h2c.22,0,.4.18.4.4s-.18.4-.4.4ZM16.07,138.48h-2c-.22,0-.4-.18-.4-.4s.18-.4.4-.4h2c.22,0,.4.18.4.4s-.18.4-.4.4Z"/>
        <path class="cls-5" d="M267.52,138.48h-1c-.22,0-.4-.18-.4-.4s.18-.4.4-.4h1c.22,0,.4.18.4.4s-.18.4-.4.4Z"/>
      </g>
      <polygon class="cls-1" points="6.15 138.08 9.97 141.62 9.97 134.54 6.15 138.08"/>
      <polygon class="cls-1" points="269.59 138.08 265.77 134.54 265.77 141.62 269.59 138.08"/>
    </g>
    <g>
      <path class="cls-5" d="M230.27,47.46c-.2,0-.38-.08-.53-.23-.07-.07-.12-.15-.16-.24s-.05-.19-.05-.29.01-.19.05-.28c.04-.09.09-.18.16-.25.07-.07.15-.12.25-.16.27-.12.61-.05.81.16.07.07.13.16.17.25.03.09.05.19.05.28,0,.2-.07.39-.22.53-.07.07-.15.13-.24.17s-.19.06-.29.06Z"/>
      <path class="cls-5" d="M49.13,227.85c-.29-.3-.29-.77,0-1.07h0c.3-.29.77-.29,1.06,0h0c.3.3.3.77,0,1.07h0c-.14.14-.33.21-.53.21h0c-.19,0-.38-.07-.53-.21ZM53.33,223.65c-.29-.3-.29-.77,0-1.07h0c.3-.29.77-.29,1.06,0h0c.3.3.3.77,0,1.07h0c-.14.14-.33.21-.53.21h0c-.19,0-.38-.07-.53-.21ZM57.53,219.45c-.29-.3-.29-.77,0-1.07h0c.29-.29.77-.29,1.06,0h0c.3.3.3.77,0,1.07h0c-.14.14-.33.21-.53.21h0c-.19,0-.38-.07-.53-.21ZM61.73,215.24c-.29-.29-.29-.76,0-1.06h0c.3-.29.77-.29,1.06,0h0c.3.3.3.77,0,1.06h0c-.14.15-.33.22-.53.22h0c-.19,0-.38-.07-.53-.22ZM65.93,211.04c-.29-.29-.29-.76,0-1.06h0c.3-.29.77-.29,1.07,0h0c.29.3.29.77,0,1.06h0c-.15.15-.34.22-.54.22h0c-.19,0-.38-.07-.53-.22ZM70.13,206.84c-.29-.29-.29-.76,0-1.06h0c.3-.29.77-.29,1.07,0h0c.29.3.29.77,0,1.06h0c-.15.15-.34.22-.54.22h0c-.19,0-.38-.07-.53-.22ZM74.33,202.64c-.29-.29-.29-.76,0-1.06h0c.3-.29.77-.29,1.07,0h0c.29.3.29.77,0,1.06h0c-.15.15-.34.22-.54.22h0c-.19,0-.38-.07-.53-.22ZM78.53,198.44c-.29-.29-.29-.77,0-1.06h0c.3-.29.77-.29,1.07,0h0c.29.29.29.77,0,1.06h0c-.15.15-.34.22-.54.22h0c-.19,0-.38-.07-.53-.22ZM82.73,194.24c-.29-.29-.29-.77,0-1.06h0c.3-.29.77-.29,1.07,0h0c.29.29.29.77,0,1.06h0c-.15.15-.34.22-.53.22h0c-.2,0-.39-.07-.54-.22ZM86.94,190.04c-.3-.29-.3-.77,0-1.06h0c.29-.29.76-.29,1.05,0h0c.3.29.3.77,0,1.06h0c-.14.15-.33.22-.52.22h0c-.2,0-.39-.07-.53-.22ZM91.14,185.84c-.3-.29-.3-.77,0-1.06h0c.29-.29.76-.29,1.06,0h0c.29.29.29.77,0,1.06h0c-.15.15-.34.22-.53.22h0c-.2,0-.39-.07-.53-.22ZM95.34,181.64c-.3-.29-.3-.77,0-1.06h0c.29-.29.76-.29,1.06,0h0c.29.29.29.77,0,1.06h0c-.15.15-.34.22-.53.22h0c-.2,0-.39-.07-.53-.22ZM99.54,177.44c-.3-.29-.3-.77,0-1.06h0c.29-.29.76-.29,1.06,0h0c.29.29.29.77,0,1.06h0c-.15.15-.34.22-.53.22h0c-.2,0-.39-.07-.53-.22ZM103.74,173.24c-.3-.29-.3-.77,0-1.06h0c.29-.29.76-.29,1.06,0h0c.29.29.29.77,0,1.06h0c-.15.15-.34.22-.53.22h0c-.2,0-.39-.07-.53-.22ZM107.94,169.04c-.3-.29-.3-.77,0-1.06h0c.29-.29.76-.29,1.06,0h0c.29.29.29.77,0,1.06h0c-.15.15-.34.22-.53.22h0c-.2,0-.39-.07-.53-.22ZM112.14,164.84c-.3-.29-.3-.77,0-1.06h0c.29-.29.76-.29,1.06,0h0c.29.29.29.77,0,1.06h0c-.15.15-.34.22-.53.22h0c-.2,0-.39-.07-.53-.22ZM116.34,160.64c-.3-.29-.3-.77,0-1.06h0c.29-.29.76-.29,1.06,0h0c.29.29.29.77,0,1.06h0c-.15.15-.34.22-.53.22h0c-.19,0-.39-.07-.53-.22ZM120.54,156.44c-.3-.29-.3-.77,0-1.06h0c.29-.29.77-.29,1.06,0h0c.29.29.29.77,0,1.06h0c-.15.15-.34.22-.53.22h0c-.19,0-.39-.07-.53-.22ZM124.74,152.24c-.3-.29-.3-.77,0-1.06h0c.29-.29.77-.29,1.06,0h0c.29.29.29.77,0,1.06h0c-.15.15-.34.22-.53.22h0c-.19,0-.39-.07-.53-.22ZM149.94,127.04c-.29-.29-.29-.77,0-1.06h0c.29-.29.77-.29,1.06,0h0c.29.29.29.77,0,1.06h0c-.15.15-.34.22-.53.22h0c-.19,0-.38-.07-.53-.22ZM154.14,122.84c-.29-.3-.29-.77,0-1.06h0c.29-.29.77-.29,1.06,0h0c.29.29.29.76,0,1.06h0c-.15.14-.34.22-.53.22h0c-.19,0-.39-.08-.53-.22ZM158.34,118.64c-.29-.3-.29-.77,0-1.06h0c.29-.29.77-.29,1.06,0h0c.29.29.29.76,0,1.06h0c-.15.14-.34.22-.53.22h0c-.19,0-.39-.08-.53-.22ZM162.54,114.44c-.29-.3-.29-.77,0-1.06h0c.29-.3.77-.3,1.06,0h0c.29.29.29.76,0,1.06h0c-.15.14-.34.22-.53.22h0c-.19,0-.39-.08-.53-.22ZM166.74,110.24c-.29-.29-.29-.77,0-1.06h0c.29-.3.77-.3,1.06,0h0c.29.29.29.77,0,1.06h0c-.15.14-.34.22-.53.22h0c-.19,0-.38-.08-.53-.22ZM170.94,106.04c-.29-.29-.29-.77,0-1.06h0c.29-.3.77-.3,1.06,0h0c.29.29.29.77,0,1.06h0c-.15.14-.34.22-.53.22h0c-.19,0-.38-.08-.53-.22ZM175.14,101.84c-.29-.3-.29-.77,0-1.06h0c.29-.3.77-.3,1.06,0h0c.29.29.29.76,0,1.06h0c-.15.14-.34.22-.53.22h0c-.19,0-.38-.08-.53-.22ZM179.34,97.64c-.29-.3-.29-.77,0-1.07h0c.29-.29.77-.29,1.06,0h0c.29.3.29.77,0,1.07h0c-.14.14-.34.22-.53.22h0c-.19,0-.38-.08-.53-.22ZM183.54,93.44c-.29-.3-.29-.77,0-1.07h0c.29-.29.77-.29,1.06,0h0c.29.3.29.77,0,1.07h0c-.15.14-.34.22-.53.22h0c-.19,0-.38-.08-.53-.22ZM187.74,89.24c-.29-.3-.29-.77,0-1.07h0c.29-.29.77-.29,1.06,0h0c.29.3.29.77,0,1.07h0c-.15.14-.34.22-.53.22h0c-.19,0-.38-.08-.53-.22ZM191.94,85.04c-.29-.3-.29-.77,0-1.07h0c.29-.29.77-.29,1.06,0h0c.29.3.29.77,0,1.07h0c-.15.14-.34.22-.53.22h0c-.19,0-.38-.08-.53-.22ZM196.14,80.84c-.29-.3-.29-.77,0-1.06h0c.29-.3.77-.3,1.06,0h0c.29.29.29.76,0,1.06h0c-.14.14-.34.22-.53.22h0c-.19,0-.38-.08-.53-.22ZM200.34,76.64c-.29-.3-.29-.77,0-1.06h0c.29-.3.77-.3,1.06,0h0c.3.29.3.76,0,1.06h0c-.14.14-.34.22-.53.22h0c-.19,0-.38-.08-.53-.22ZM204.54,72.44c-.29-.3-.29-.77,0-1.07h0c.29-.29.77-.29,1.06,0h0c.3.3.3.77,0,1.07h0c-.14.14-.34.21-.53.21h0c-.19,0-.38-.07-.53-.21ZM208.74,68.24c-.29-.3-.29-.77,0-1.06h0c.29-.3.77-.3,1.06,0h0c.3.29.3.76,0,1.06h0c-.14.14-.34.22-.53.22h0c-.19,0-.38-.08-.53-.22ZM212.94,64.03c-.29-.29-.29-.76,0-1.06h0c.29-.29.77-.29,1.06,0h0c.3.3.3.77,0,1.06h0c-.14.15-.34.22-.53.22h0c-.19,0-.38-.07-.53-.22ZM217.14,59.83c-.29-.29-.29-.76,0-1.06h0c.29-.29.77-.29,1.06,0h0c.3.3.3.77,0,1.06h0c-.14.15-.34.22-.53.22h0c-.19,0-.38-.07-.53-.22ZM221.34,55.63c-.29-.29-.29-.76,0-1.06h0c.3-.29.77-.29,1.06,0h0c.29.3.29.77,0,1.06h0c-.14.15-.34.22-.53.22h0c-.19,0-.38-.07-.53-.22ZM225.54,51.43c-.29-.29-.29-.76,0-1.06h0c.3-.29.77-.29,1.06,0h0c.3.3.3.77,0,1.06h0c-.14.15-.33.22-.53.22h0c-.19,0-.38-.07-.53-.22Z"/>
      <path class="cls-5" d="M45.46,232.27c-.2,0-.38-.08-.53-.23-.14-.14-.22-.32-.22-.52s.08-.4.22-.53c.07-.07.16-.13.25-.17.18-.08.39-.07.57,0,.09.04.17.1.24.17.14.13.22.33.22.53s-.08.38-.22.52c-.14.15-.33.23-.53.23Z"/>
    </g>
    <g>
      <g>
        <path class="cls-5" d="M137.87,268.29c-.22,0-.4-.18-.4-.4v-1c0-.22.18-.4.4-.4s.4.18.4.4v1c0,.22-.18.4-.4.4Z"/>
        <path class="cls-5" d="M137.87,262.28c-.22,0-.4-.18-.4-.4v-2c0-.22.18-.4.4-.4s.4.18.4.4v2c0,.22-.18.4-.4.4ZM137.87,255.27c-.22,0-.4-.18-.4-.4v-2c0-.22.18-.4.4-.4s.4.18.4.4v2c0,.22-.18.4-.4.4ZM137.87,248.25c-.22,0-.4-.18-.4-.4v-2c0-.22.18-.4.4-.4s.4.18.4.4v2c0,.22-.18.4-.4.4ZM137.87,241.24c-.22,0-.4-.18-.4-.4v-2c0-.22.18-.4.4-.4s.4.18.4.4v2c0,.22-.18.4-.4.4ZM137.87,234.23c-.22,0-.4-.18-.4-.4v-2c0-.22.18-.4.4-.4s.4.18.4.4v2c0,.22-.18.4-.4.4ZM137.87,227.22c-.22,0-.4-.18-.4-.4v-2c0-.22.18-.4.4-.4s.4.18.4.4v2c0,.22-.18.4-.4.4ZM137.87,220.21c-.22,0-.4-.18-.4-.4v-2c0-.22.18-.4.4-.4s.4.18.4.4v2c0,.22-.18.4-.4.4ZM137.87,213.19c-.22,0-.4-.18-.4-.4v-2c0-.22.18-.4.4-.4s.4.18.4.4v2c0,.22-.18.4-.4.4ZM137.87,199.17c-.22,0-.4-.18-.4-.4v-2c0-.22.18-.4.4-.4s.4.18.4.4v2c0,.22-.18.4-.4.4ZM137.87,192.16c-.22,0-.4-.18-.4-.4v-2c0-.22.18-.4.4-.4s.4.18.4.4v2c0,.22-.18.4-.4.4ZM137.87,185.14c-.22,0-.4-.18-.4-.4v-2c0-.22.18-.4.4-.4s.4.18.4.4v2c0,.22-.18.4-.4.4ZM137.87,178.13c-.22,0-.4-.18-.4-.4v-2c0-.22.18-.4.4-.4s.4.18.4.4v2c0,.22-.18.4-.4.4ZM137.87,171.12c-.22,0-.4-.18-.4-.4v-2c0-.22.18-.4.4-.4s.4.18.4.4v2c0,.22-.18.4-.4.4ZM137.87,164.11c-.22,0-.4-.18-.4-.4v-2c0-.22.18-.4.4-.4s.4.18.4.4v2c0,.22-.18.4-.4.4ZM137.87,157.09c-.22,0-.4-.18-.4-.4v-2c0-.22.18-.4.4-.4s.4.18.4.4v2c0,.22-.18.4-.4.4ZM137.87,150.08c-.22,0-.4-.18-.4-.4v-2c0-.22.18-.4.4-.4s.4.18.4.4v2c0,.22-.18.4-.4.4ZM137.87,129.04c-.22,0-.4-.18-.4-.4v-2c0-.22.18-.4.4-.4s.4.18.4.4v2c0,.22-.18.4-.4.4ZM137.87,122.03c-.22,0-.4-.18-.4-.4v-2c0-.22.18-.4.4-.4s.4.18.4.4v2c0,.22-.18.4-.4.4ZM137.87,115.02c-.22,0-.4-.18-.4-.4v-2c0-.22.18-.4.4-.4s.4.18.4.4v2c0,.22-.18.4-.4.4ZM137.87,108.01c-.22,0-.4-.18-.4-.4v-2c0-.22.18-.4.4-.4s.4.18.4.4v2c0,.22-.18.4-.4.4ZM137.87,101c-.22,0-.4-.18-.4-.4v-2c0-.22.18-.4.4-.4s.4.18.4.4v2c0,.22-.18.4-.4.4ZM137.87,93.98c-.22,0-.4-.18-.4-.4v-2c0-.22.18-.4.4-.4s.4.18.4.4v2c0,.22-.18.4-.4.4ZM137.87,86.97c-.22,0-.4-.18-.4-.4v-2c0-.22.18-.4.4-.4s.4.18.4.4v2c0,.22-.18.4-.4.4ZM137.87,79.96c-.22,0-.4-.18-.4-.4v-2c0-.22.18-.4.4-.4s.4.18.4.4v2c0,.22-.18.4-.4.4ZM137.87,65.93c-.22,0-.4-.18-.4-.4v-2c0-.22.18-.4.4-.4s.4.18.4.4v2c0,.22-.18.4-.4.4ZM137.87,58.92c-.22,0-.4-.18-.4-.4v-2c0-.22.18-.4.4-.4s.4.18.4.4v2c0,.22-.18.4-.4.4ZM137.87,51.91c-.22,0-.4-.18-.4-.4v-2c0-.22.18-.4.4-.4s.4.18.4.4v2c0,.22-.18.4-.4.4ZM137.87,44.9c-.22,0-.4-.18-.4-.4v-2c0-.22.18-.4.4-.4s.4.18.4.4v2c0,.22-.18.4-.4.4ZM137.87,37.88c-.22,0-.4-.18-.4-.4v-2c0-.22.18-.4.4-.4s.4.18.4.4v2c0,.22-.18.4-.4.4ZM137.87,30.87c-.22,0-.4-.18-.4-.4v-2c0-.22.18-.4.4-.4s.4.18.4.4v2c0,.22-.18.4-.4.4ZM137.87,23.86c-.22,0-.4-.18-.4-.4v-2c0-.22.18-.4.4-.4s.4.18.4.4v2c0,.22-.18.4-.4.4ZM137.87,16.85c-.22,0-.4-.18-.4-.4v-2c0-.22.18-.4.4-.4s.4.18.4.4v2c0,.22-.18.4-.4.4Z"/>
        <path class="cls-5" d="M137.87,9.83c-.22,0-.4-.18-.4-.4v-1c0-.22.18-.4.4-.4s.4.18.4.4v1c0,.22-.18.4-.4.4Z"/>
      </g>
      <polygon class="cls-1" points="137.87 6.36 134.33 10.18 141.41 10.18 137.87 6.36"/>
      <polygon class="cls-1" points="137.87 269.8 141.41 265.98 134.33 265.98 137.87 269.8"/>
    </g>
    <g>
      <path class="cls-5" d="M230.27,232.27c-.2,0-.38-.08-.53-.23-.14-.14-.22-.32-.22-.52s.08-.4.22-.53c.07-.07.16-.13.25-.17.18-.08.39-.08.57,0,.09.04.17.1.24.17.14.13.22.33.22.53s-.07.38-.22.52c-.14.15-.33.23-.53.23Z"/>
      <path class="cls-5" d="M225.54,227.85c-.29-.3-.29-.77,0-1.07h0c.3-.29.77-.29,1.06,0h0c.3.3.3.77,0,1.07h0c-.14.14-.33.21-.53.21h0c-.19,0-.38-.07-.53-.21ZM221.34,223.64c-.29-.29-.29-.77,0-1.06h0c.3-.29.77-.29,1.06,0h0c.29.29.29.77,0,1.06h0c-.14.15-.34.22-.53.22h0c-.19,0-.38-.07-.53-.22ZM217.14,219.44c-.29-.29-.29-.77,0-1.06h0c.29-.29.77-.29,1.06,0h0c.3.29.3.77,0,1.06h0c-.14.15-.34.22-.53.22h0c-.19,0-.38-.07-.53-.22ZM212.94,215.24c-.29-.29-.29-.76,0-1.06h0c.29-.29.77-.29,1.06,0h0c.3.3.3.77,0,1.06h0c-.14.15-.34.22-.53.22h0c-.19,0-.38-.07-.53-.22ZM208.74,211.04c-.29-.29-.29-.76,0-1.06h0c.29-.29.77-.29,1.06,0h0c.3.3.3.77,0,1.06h0c-.14.15-.34.22-.53.22h0c-.19,0-.38-.07-.53-.22ZM204.54,206.84c-.29-.29-.29-.76,0-1.06h0c.29-.29.77-.29,1.06,0h0c.3.3.3.77,0,1.06h0c-.14.15-.34.22-.53.22h0c-.19,0-.38-.07-.53-.22ZM200.34,202.64c-.29-.29-.29-.76,0-1.06h0c.29-.29.77-.29,1.06,0h0c.3.3.3.77,0,1.06h0c-.14.15-.34.22-.53.22h0c-.19,0-.38-.07-.53-.22ZM196.14,198.44c-.29-.29-.29-.77,0-1.06h0c.29-.29.77-.29,1.06,0h0c.29.29.29.77,0,1.06h0c-.14.15-.34.22-.53.22h0c-.19,0-.38-.07-.53-.22ZM191.94,194.24c-.29-.29-.29-.77,0-1.06h0c.29-.29.77-.29,1.06,0h0c.29.29.29.77,0,1.06h0c-.15.15-.34.22-.53.22h0c-.19,0-.38-.07-.53-.22ZM187.74,190.04c-.29-.29-.29-.77,0-1.06h0c.29-.29.77-.29,1.06,0h0c.29.29.29.77,0,1.06h0c-.15.15-.34.22-.53.22h0c-.19,0-.38-.07-.53-.22ZM183.54,185.84c-.29-.29-.29-.77,0-1.06h0c.29-.29.77-.29,1.06,0h0c.29.29.29.77,0,1.06h0c-.15.15-.34.22-.53.22h0c-.19,0-.38-.07-.53-.22ZM179.34,181.64c-.29-.29-.29-.77,0-1.06h0c.29-.29.77-.29,1.06,0h0c.29.29.29.77,0,1.06h0c-.14.15-.34.22-.53.22h0c-.19,0-.38-.07-.53-.22ZM175.14,177.44c-.29-.29-.29-.77,0-1.06h0c.29-.29.77-.29,1.06,0h0c.29.29.29.77,0,1.06h0c-.15.15-.34.22-.53.22h0c-.19,0-.38-.07-.53-.22ZM170.94,173.24c-.29-.29-.29-.77,0-1.06h0c.29-.29.77-.29,1.06,0h0c.29.29.29.77,0,1.06h0c-.15.15-.34.22-.53.22h0c-.19,0-.38-.07-.53-.22ZM166.74,169.04c-.29-.29-.29-.77,0-1.06h0c.29-.29.77-.29,1.06,0h0c.29.29.29.77,0,1.06h0c-.15.15-.34.22-.53.22h0c-.19,0-.38-.07-.53-.22ZM162.54,164.84c-.29-.29-.29-.77,0-1.06h0c.29-.29.77-.29,1.06,0h0c.29.29.29.77,0,1.06h0c-.15.15-.34.22-.53.22h0c-.19,0-.39-.07-.53-.22ZM158.34,160.64c-.29-.29-.29-.77,0-1.06h0c.29-.29.77-.29,1.06,0h0c.29.29.29.77,0,1.06h0c-.15.15-.34.22-.53.22h0c-.19,0-.39-.07-.53-.22ZM154.14,156.44c-.29-.29-.29-.77,0-1.06h0c.29-.29.77-.29,1.06,0h0c.29.29.29.77,0,1.06h0c-.15.15-.34.22-.53.22h0c-.19,0-.39-.07-.53-.22ZM149.94,152.24c-.29-.29-.29-.77,0-1.06h0c.29-.29.77-.29,1.06,0h0c.29.29.29.77,0,1.06h0c-.15.15-.34.22-.53.22h0c-.19,0-.38-.07-.53-.22ZM124.74,127.04c-.3-.3-.3-.77,0-1.06h0c.29-.29.77-.29,1.06,0h0c.29.29.29.76,0,1.06h0c-.15.14-.34.22-.53.22h0c-.19,0-.39-.08-.53-.22ZM120.54,122.84c-.3-.3-.3-.77,0-1.06h0c.29-.29.77-.29,1.06,0h0c.29.29.29.76,0,1.06h0c-.15.14-.34.22-.53.22h0c-.19,0-.39-.08-.53-.22ZM116.34,118.64c-.3-.3-.3-.77,0-1.06h0c.29-.29.76-.29,1.06,0h0c.29.29.29.76,0,1.06h0c-.15.14-.34.22-.53.22h0c-.19,0-.39-.08-.53-.22ZM112.14,114.44c-.3-.3-.3-.77,0-1.06h0c.29-.3.76-.3,1.06,0h0c.29.29.29.76,0,1.06h0c-.15.14-.34.22-.53.22h0c-.2,0-.39-.08-.53-.22ZM107.94,110.24c-.3-.29-.3-.77,0-1.06h0c.29-.3.76-.3,1.06,0h0c.29.29.29.77,0,1.06h0c-.15.14-.34.22-.53.22h0c-.2,0-.39-.08-.53-.22ZM103.74,106.04c-.3-.29-.3-.77,0-1.06h0c.29-.3.76-.3,1.06,0h0c.29.29.29.77,0,1.06h0c-.15.14-.34.22-.53.22h0c-.2,0-.39-.08-.53-.22ZM99.54,101.84c-.3-.3-.3-.77,0-1.06h0c.29-.3.76-.3,1.06,0h0c.29.29.29.76,0,1.06h0c-.15.14-.34.22-.53.22h0c-.2,0-.39-.08-.53-.22ZM95.34,97.64c-.3-.3-.3-.77,0-1.07h0c.29-.29.76-.29,1.06,0h0c.29.3.29.77,0,1.07h0c-.15.14-.34.22-.53.22h0c-.2,0-.39-.08-.53-.22ZM91.14,93.44c-.3-.3-.3-.77,0-1.07h0c.29-.29.76-.29,1.06,0h0c.29.3.29.77,0,1.07h0c-.15.14-.34.22-.53.22h0c-.2,0-.39-.08-.53-.22ZM86.94,89.24c-.3-.3-.3-.77,0-1.07h0c.29-.29.76-.29,1.05,0h0c.3.3.3.77,0,1.07h0c-.14.14-.33.22-.52.22h0c-.2,0-.39-.08-.53-.22ZM82.73,85.04c-.29-.3-.29-.77,0-1.07h0c.3-.29.77-.29,1.07,0h0c.29.3.29.77,0,1.07h0c-.15.14-.34.22-.53.22h0c-.2,0-.39-.08-.54-.22ZM78.53,80.84c-.29-.3-.29-.77,0-1.06h0c.3-.3.77-.3,1.07,0h0c.29.29.29.76,0,1.06h0c-.15.14-.34.22-.54.22h0c-.19,0-.38-.08-.53-.22ZM74.33,76.64c-.29-.3-.29-.77,0-1.06h0c.3-.3.77-.3,1.07,0h0c.29.29.29.76,0,1.06h0c-.15.14-.34.22-.54.22h0c-.19,0-.38-.08-.53-.22ZM70.13,72.44c-.29-.3-.29-.77,0-1.07h0c.3-.29.77-.29,1.07,0h0c.29.3.29.77,0,1.07h0c-.15.14-.34.21-.54.21h0c-.19,0-.38-.07-.53-.21ZM65.93,68.23c-.29-.29-.29-.76,0-1.06h0c.3-.29.77-.29,1.07,0h0c.29.3.29.77,0,1.06h0c-.15.15-.34.22-.54.22h0c-.19,0-.38-.07-.53-.22ZM61.73,64.03c-.29-.29-.29-.76,0-1.06h0c.3-.29.77-.29,1.06,0h0c.3.3.3.77,0,1.06h0c-.14.15-.33.22-.53.22h0c-.19,0-.38-.07-.53-.22ZM57.53,59.83c-.29-.29-.29-.76,0-1.06h0c.29-.29.77-.29,1.06,0h0c.3.3.3.77,0,1.06h0c-.14.15-.33.22-.53.22h0c-.19,0-.38-.07-.53-.22ZM53.33,55.63c-.29-.29-.29-.76,0-1.06h0c.3-.29.77-.29,1.06,0h0c.3.3.3.77,0,1.06h0c-.14.15-.33.22-.53.22h0c-.19,0-.38-.07-.53-.22ZM49.13,51.43c-.29-.29-.29-.76,0-1.06h0c.3-.29.77-.29,1.06,0h0c.3.3.3.77,0,1.06h0c-.14.15-.33.22-.53.22h0c-.19,0-.38-.07-.53-.22Z"/>
      <path class="cls-5" d="M45.46,47.46c-.1,0-.19-.02-.28-.06-.09-.04-.18-.1-.25-.17-.14-.14-.22-.33-.22-.53,0-.09.02-.19.06-.28.04-.09.09-.18.16-.25.28-.28.78-.28,1.06,0,.07.07.13.16.16.25.04.09.06.19.06.28,0,.2-.08.39-.22.53-.14.15-.33.23-.53.23Z"/>
    </g>
    <g>
      <path class="cls-2" d="M107.62,135.9c-.09-.11-.23-.23-.43-.36s-.42-.24-.68-.35c-.26-.11-.54-.2-.85-.27-.31-.08-.62-.11-.95-.11-.71,0-1.23.13-1.58.39s-.52.62-.52,1.09c0,.34.1.61.29.81.19.2.49.36.89.49.4.13.89.26,1.48.4.74.17,1.37.38,1.9.62.53.24.94.56,1.23.95s.43.91.43,1.57c0,.53-.1.99-.31,1.39-.21.39-.49.71-.86.96-.36.25-.78.43-1.26.55-.47.12-.98.18-1.53.18s-1.07-.06-1.6-.18-1.04-.28-1.51-.5c-.48-.22-.93-.48-1.34-.8l.79-1.45c.12.13.31.27.56.43s.54.31.87.45c.33.14.69.26,1.08.36s.79.14,1.19.14c.68,0,1.19-.12,1.55-.35.36-.24.54-.58.54-1.03,0-.35-.12-.64-.36-.85-.24-.22-.58-.4-1.01-.55-.44-.15-.97-.3-1.58-.45-.71-.18-1.3-.39-1.77-.62-.47-.23-.83-.52-1.06-.88-.23-.35-.35-.81-.35-1.37,0-.7.17-1.3.51-1.79.34-.49.81-.85,1.4-1.1s1.26-.37,1.98-.37c.48,0,.95.05,1.39.16.44.11.85.25,1.23.43s.71.39,1.01.62l-.76,1.39Z"/>
      <path class="cls-2" d="M111.63,133.37l2.97,5.35,3-5.35h1.86l-4.01,6.92v3.83h-1.7v-3.86l-3.98-6.89h1.86Z"/>
      <path class="cls-2" d="M127.33,135.9c-.09-.11-.23-.23-.43-.36s-.42-.24-.68-.35c-.26-.11-.54-.2-.85-.27-.31-.08-.62-.11-.95-.11-.71,0-1.23.13-1.58.39s-.52.62-.52,1.09c0,.34.1.61.29.81.19.2.49.36.89.49.4.13.89.26,1.48.4.74.17,1.37.38,1.9.62.53.24.94.56,1.23.95s.43.91.43,1.57c0,.53-.1.99-.31,1.39-.21.39-.49.71-.86.96-.36.25-.78.43-1.26.55-.47.12-.98.18-1.53.18s-1.07-.06-1.6-.18-1.04-.28-1.51-.5c-.48-.22-.93-.48-1.34-.8l.79-1.45c.12.13.31.27.56.43s.54.31.87.45c.33.14.69.26,1.08.36s.79.14,1.19.14c.68,0,1.19-.12,1.55-.35.36-.24.54-.58.54-1.03,0-.35-.12-.64-.36-.85-.24-.22-.58-.4-1.01-.55-.44-.15-.97-.3-1.58-.45-.71-.18-1.3-.39-1.77-.62-.47-.23-.83-.52-1.06-.88-.23-.35-.35-.81-.35-1.37,0-.7.17-1.3.51-1.79.34-.49.81-.85,1.4-1.1s1.26-.37,1.98-.37c.48,0,.95.05,1.39.16.44.11.85.25,1.23.43s.71.39,1.01.62l-.76,1.39Z"/>
      <path class="cls-2" d="M138.72,134.87h-3.58v9.26h-1.71v-9.26h-3.59v-1.5h8.88v1.5Z"/>
      <path class="cls-2" d="M148.15,142.63v1.5h-7.38v-10.76h7.24v1.5h-5.53v3.08h4.8v1.39h-4.8v3.29h5.67Z"/>
      <path class="cls-2" d="M159.55,144.13v-7.66l-3.17,5.82h-1l-3.17-5.82v7.66h-1.71v-10.76h1.82l3.56,6.56,3.56-6.56h1.82v10.76h-1.71Z"/>
      <path class="cls-2" d="M168.05,144.13c0-.52.04-1,.12-1.44.08-.44.23-.86.44-1.25s.51-.76.9-1.11.87-.69,1.47-1.01c.43-.25.83-.47,1.21-.66.38-.19.71-.38,1.01-.57.29-.19.52-.39.69-.61.16-.22.25-.47.25-.77,0-.27-.08-.53-.23-.77-.15-.24-.37-.43-.66-.58-.29-.15-.64-.22-1.05-.22-.34,0-.65.05-.91.14-.27.09-.52.21-.74.35s-.43.3-.61.47c-.18.17-.34.33-.48.48l-1.28-1.45c.15-.15.35-.32.6-.51s.57-.38.94-.57c.37-.18.8-.34,1.27-.47s.99-.19,1.55-.19c.78,0,1.45.13,2.02.4.57.27,1,.63,1.3,1.08.3.46.45.98.45,1.57,0,.46-.09.86-.27,1.21-.18.35-.41.65-.69.92-.27.27-.57.5-.88.69s-.61.36-.89.51c-.46.22-.87.44-1.22.64-.35.2-.64.4-.88.59s-.44.39-.6.6c-.16.21-.3.45-.41.72h6.04v1.81h-8.45Z"/>
    </g>
    <g>
      <path class="cls-1" d="M29.77,168.81c-.11.09-.23.23-.36.43-.13.2-.24.42-.35.68-.11.26-.2.54-.27.85-.08.31-.11.62-.11.95,0,.71.13,1.23.39,1.58s.62.52,1.08.52c.34,0,.61-.1.81-.29.2-.19.36-.49.49-.89.13-.4.26-.89.4-1.48.17-.74.38-1.37.62-1.9.24-.53.56-.94.95-1.23s.91-.43,1.57-.43c.53,0,.99.1,1.39.31.39.21.71.49.96.86.25.36.43.78.55,1.26.12.47.18.98.18,1.53s-.06,1.07-.17,1.6-.28,1.04-.5,1.51c-.22.48-.48.93-.8,1.34l-1.45-.79c.13-.12.27-.31.43-.56s.31-.54.45-.87c.14-.33.26-.69.36-1.08s.14-.79.14-1.19c0-.68-.12-1.19-.35-1.55-.24-.36-.58-.54-1.03-.54-.35,0-.64.12-.85.36-.22.24-.4.58-.55,1.01-.15.44-.3.97-.45,1.58-.18.71-.39,1.3-.62,1.77-.23.47-.52.83-.88,1.06-.35.23-.81.35-1.37.35-.7,0-1.3-.17-1.79-.51-.49-.34-.85-.81-1.1-1.4s-.37-1.26-.37-1.98c0-.48.05-.95.16-1.39.11-.44.25-.85.43-1.23.18-.38.39-.71.62-1.01l1.39.76Z"/>
      <path class="cls-1" d="M27.24,164.8l5.35-2.97-5.35-3v-1.86l6.92,4.01h3.83v1.7h-3.86l-6.89,3.98v-1.86Z"/>
      <path class="cls-1" d="M29.77,149.1c-.11.09-.23.23-.36.43-.13.2-.24.42-.35.68-.11.26-.2.54-.27.85-.08.31-.11.62-.11.95,0,.71.13,1.23.39,1.58s.62.52,1.08.52c.34,0,.61-.1.81-.29.2-.19.36-.49.49-.89.13-.4.26-.89.4-1.48.17-.74.38-1.37.62-1.9.24-.53.56-.94.95-1.23s.91-.43,1.57-.43c.53,0,.99.1,1.39.31.39.21.71.49.96.86.25.36.43.78.55,1.26.12.47.18.98.18,1.53s-.06,1.07-.17,1.6-.28,1.04-.5,1.51c-.22.48-.48.93-.8,1.34l-1.45-.79c.13-.12.27-.31.43-.56s.31-.54.45-.87c.14-.33.26-.69.36-1.08s.14-.79.14-1.19c0-.68-.12-1.19-.35-1.55-.24-.36-.58-.54-1.03-.54-.35,0-.64.12-.85.36-.22.24-.4.58-.55,1.01-.15.44-.3.97-.45,1.58-.18.71-.39,1.3-.62,1.77-.23.47-.52.83-.88,1.06-.35.23-.81.35-1.37.35-.7,0-1.3-.17-1.79-.51-.49-.34-.85-.81-1.1-1.4s-.37-1.26-.37-1.98c0-.48.05-.95.16-1.39.11-.44.25-.85.43-1.23.18-.38.39-.71.62-1.01l1.39.76Z"/>
      <path class="cls-1" d="M28.74,137.71v3.58h9.26v1.71h-9.26v3.59h-1.5v-8.88h1.5Z"/>
      <path class="cls-1" d="M36.49,128.29h1.5v7.38h-10.76v-7.24h1.5v5.53h3.07v-4.8h1.39v4.8h3.29v-5.67Z"/>
      <path class="cls-1" d="M38,116.88h-7.67l5.82,3.17v1l-5.82,3.17h7.67v1.71h-10.76v-1.82l6.56-3.56-6.56-3.56v-1.82h10.76v1.71Z"/>
      <path class="cls-1" d="M36.12,99.99h1.88v8.45h-1.88v-3.2h-6.64c.15.11.31.29.48.53.17.24.33.51.47.82.15.3.26.6.35.9.09.3.13.57.13.83h-1.95c0-.25-.08-.55-.23-.88-.15-.33-.33-.66-.54-.98-.21-.32-.41-.59-.61-.82s-.34-.36-.43-.4v-2.14h8.95v-3.11Z"/>
    </g>
    <g>
      <path class="cls-1" d="M245.82,107.19c.11-.09.23-.23.36-.43.13-.2.24-.42.35-.68.11-.26.2-.54.27-.85.08-.31.11-.62.11-.95,0-.71-.13-1.23-.39-1.58s-.62-.52-1.08-.52c-.34,0-.61.1-.81.29-.2.19-.36.49-.49.89-.13.4-.26.89-.4,1.48-.17.74-.38,1.37-.62,1.9-.24.53-.56.94-.95,1.23s-.91.43-1.57.43c-.53,0-.99-.1-1.39-.31-.39-.21-.71-.49-.96-.86-.25-.36-.43-.78-.55-1.26-.12-.47-.18-.98-.18-1.53s.06-1.07.17-1.6c.12-.53.28-1.04.5-1.51.22-.48.48-.93.8-1.34l1.45.79c-.13.12-.27.31-.43.56s-.31.54-.45.87c-.14.33-.26.69-.36,1.08s-.14.79-.14,1.19c0,.68.12,1.19.35,1.55.24.36.58.54,1.03.54.35,0,.64-.12.85-.36.22-.24.4-.58.55-1.01.15-.44.3-.97.45-1.58.18-.71.39-1.3.62-1.77.23-.47.52-.83.88-1.06.35-.23.81-.35,1.37-.35.7,0,1.3.17,1.79.51.49.34.85.81,1.1,1.4s.37,1.26.37,1.98c0,.48-.05.95-.16,1.39-.11.44-.25.85-.43,1.23-.18.38-.39.71-.62,1.01l-1.39-.76Z"/>
      <path class="cls-1" d="M248.35,111.2l-5.35,2.97,5.35,3v1.86s-6.92-4.01-6.92-4.01h-3.83s0-1.7,0-1.7h3.86s6.89-3.98,6.89-3.98v1.86Z"/>
      <path class="cls-1" d="M245.82,126.9c.11-.09.23-.23.36-.43.13-.2.24-.42.35-.68.11-.26.2-.54.27-.85.08-.31.11-.62.11-.95,0-.71-.13-1.23-.39-1.58s-.62-.52-1.08-.52c-.34,0-.61.1-.81.29-.2.19-.36.49-.49.89-.13.4-.26.89-.4,1.48-.17.74-.38,1.37-.62,1.9-.24.53-.56.94-.95,1.23s-.91.43-1.57.43c-.53,0-.99-.1-1.39-.31-.39-.21-.71-.49-.96-.86-.25-.36-.43-.78-.55-1.26-.12-.47-.18-.98-.18-1.53s.06-1.07.17-1.6.28-1.04.5-1.51c.22-.48.48-.93.8-1.34l1.45.79c-.13.12-.27.31-.43.56s-.31.54-.45.87c-.14.33-.26.69-.36,1.08s-.14.79-.14,1.19c0,.68.12,1.19.35,1.55.24.36.58.54,1.03.54.35,0,.64-.12.85-.36.22-.24.4-.58.55-1.01.15-.44.3-.97.45-1.58.18-.71.39-1.3.62-1.77.23-.47.52-.83.88-1.06.35-.23.81-.35,1.37-.35.7,0,1.3.17,1.79.51.49.34.85.81,1.1,1.4s.37,1.26.37,1.98c0,.48-.05.95-.16,1.39-.11.44-.25.85-.43,1.23-.18.38-.39.71-.62,1.01l-1.39-.76Z"/>
      <path class="cls-1" d="M246.85,138.29v-3.58h-9.26s0-1.71,0-1.71h9.26v-3.59s1.5,0,1.5,0v8.88s-1.5,0-1.5,0Z"/>
      <path class="cls-1" d="M239.1,147.71h-1.5s0-7.38,0-7.38h10.76s0,7.24,0,7.24h-1.5s0-5.53,0-5.53h-3.07v4.8s-1.39,0-1.39,0v-4.8h-3.29v5.67Z"/>
      <path class="cls-1" d="M237.6,159.12h7.67s-5.82-3.17-5.82-3.17v-1s5.82-3.17,5.82-3.17h-7.67s0-1.71,0-1.71h10.76s0,1.82,0,1.82l-6.56,3.56,6.56,3.56v1.82s-10.76,0-10.76,0v-1.71Z"/>
      <path class="cls-1" d="M239.48,176.01h-1.88s0-8.45,0-8.45h1.88s0,3.2,0,3.2h6.64c-.15-.11-.31-.29-.48-.53-.17-.24-.33-.51-.47-.82-.15-.3-.26-.6-.35-.9-.09-.3-.13-.57-.13-.83h1.95c0,.25.08.55.23.88.15.33.33.66.54.98.21.32.41.59.61.82s.34.36.43.4v2.14s-8.95,0-8.95,0v3.11Z"/>
    </g>
    <g>
      <path class="cls-7" d="M118.12,73.44v.56h-3.37v-4.97h3.31v.56h-2.68v1.61h2.33v.52h-2.33v1.71h2.74Z"/>
      <path class="cls-7" d="M121.18,74.04c-.35,0-.67-.07-.95-.21-.28-.14-.53-.33-.74-.57-.21-.24-.37-.51-.48-.81-.11-.3-.17-.61-.17-.93s.06-.65.18-.95c.12-.3.28-.57.5-.8.21-.24.46-.42.75-.56.28-.14.59-.21.93-.21s.67.07.95.22c.28.15.53.34.73.58.21.24.36.51.48.81.11.3.17.6.17.92,0,.33-.06.65-.17.95-.12.3-.28.57-.49.8-.21.24-.46.42-.75.56s-.59.2-.93.2ZM121.19,73.47c.27,0,.5-.06.71-.17.21-.11.39-.26.54-.45s.26-.4.34-.63.12-.47.12-.71c0-.25-.04-.5-.12-.73-.08-.24-.2-.44-.35-.63-.15-.18-.33-.33-.54-.43s-.44-.16-.69-.16c-.27,0-.5.06-.71.17s-.39.26-.54.45c-.15.19-.26.4-.34.63-.08.23-.12.47-.12.71s.04.5.12.73c.08.24.2.44.35.63s.33.33.54.43.44.16.7.16ZM121.47,72.38h.62l1.39,1.62h-.62l-1.39-1.62Z"/>
      <path class="cls-7" d="M126.72,74.04c-.4,0-.73-.07-1-.21s-.49-.32-.65-.56c-.16-.24-.28-.5-.36-.8-.07-.3-.11-.61-.11-.92v-2.51h.63v2.51c0,.24.02.48.07.71.05.23.13.44.24.62.11.18.26.33.46.43.19.11.43.16.71.16s.53-.05.72-.16c.19-.11.34-.26.45-.44.11-.18.19-.39.24-.62s.07-.46.07-.7v-2.51h.63v2.51c0,.34-.04.65-.12.96-.08.3-.2.57-.37.79-.17.23-.39.41-.65.54s-.59.2-.98.2Z"/>
      <path class="cls-7" d="M130.23,74v-4.97h.63v4.97h-.63Z"/>
      <path class="cls-7" d="M132.33,74v-4.97h.63v4.41h2.77v.56h-3.4Z"/>
      <path class="cls-7" d="M136.7,74v-4.97h.63v4.97h-.63Z"/>
      <path class="cls-7" d="M142.62,72.72c0,.26-.07.48-.2.67-.13.19-.31.34-.53.45-.22.11-.47.16-.73.16h-2.36v-4.97h2.47c.23,0,.44.06.61.19.17.12.3.28.39.48.09.19.14.4.14.61,0,.24-.06.47-.19.68s-.3.37-.53.47c.28.08.51.24.68.47.17.23.25.49.25.8ZM139.43,69.58v1.66h1.58c.15,0,.28-.04.4-.11s.21-.17.27-.3c.07-.13.1-.26.1-.41,0-.16-.03-.3-.09-.42-.06-.12-.15-.22-.26-.3-.11-.07-.23-.11-.37-.11h-1.62ZM141.98,72.61c0-.15-.03-.3-.1-.43-.07-.13-.16-.24-.27-.31-.11-.08-.25-.12-.4-.12h-1.78v1.71h1.73c.15,0,.29-.04.42-.12.12-.08.22-.18.29-.31s.11-.27.11-.42Z"/>
      <path class="cls-7" d="M143.78,74v-4.97h2.13c.22,0,.42.05.6.14s.34.21.48.36c.14.15.24.32.31.51s.11.38.11.58c0,.23-.04.45-.13.65-.09.21-.21.38-.36.52-.16.15-.34.25-.55.3l1.2,1.9h-.71l-1.13-1.79h-1.32v1.79h-.63ZM144.41,71.66h1.5c.17,0,.32-.05.45-.14s.23-.22.3-.38.11-.33.11-.51-.04-.36-.13-.51-.19-.28-.33-.37c-.14-.09-.28-.14-.45-.14h-1.46v2.06Z"/>
      <path class="cls-7" d="M148.66,74v-4.97h.63v4.97h-.63Z"/>
      <path class="cls-7" d="M152.81,74.04c-.4,0-.73-.07-1-.21s-.49-.32-.65-.56c-.16-.24-.28-.5-.36-.8-.07-.3-.11-.61-.11-.92v-2.51h.63v2.51c0,.24.02.48.07.71.05.23.13.44.24.62.11.18.26.33.46.43.19.11.43.16.71.16s.53-.05.72-.16c.19-.11.34-.26.45-.44.11-.18.19-.39.24-.62s.07-.46.07-.7v-2.51h.63v2.51c0,.34-.04.65-.12.96-.08.3-.2.57-.37.79-.17.23-.39.41-.65.54s-.59.2-.98.2Z"/>
      <path class="cls-7" d="M160.62,74v-3.79l-1.64,2.92h-.38l-1.65-2.92v3.79h-.63v-4.97h.67l1.8,3.23,1.81-3.23h.66v4.97h-.63Z"/>
    </g>
    <g>
      <path class="cls-7" d="M202.49,118.12h-.56v-3.37h4.97v3.31h-.56v-2.68h-1.61v2.33h-.52v-2.33h-1.71v2.74Z"/>
      <path class="cls-7" d="M201.9,121.18c0-.35.07-.67.21-.95.14-.28.33-.53.57-.74.24-.21.51-.37.81-.48.3-.11.61-.17.93-.17s.65.06.95.18c.3.12.57.28.8.5.24.21.42.46.56.75.14.28.21.59.21.93s-.07.67-.22.95c-.15.28-.34.53-.58.73-.24.21-.51.36-.81.48-.3.11-.6.17-.92.17-.33,0-.65-.06-.95-.17-.3-.12-.57-.28-.8-.49-.24-.21-.42-.46-.56-.75s-.2-.59-.2-.93ZM202.46,121.19c0,.27.06.5.17.71.11.21.26.39.45.54s.4.26.63.34.47.12.71.12c.25,0,.5-.04.73-.12.24-.08.44-.2.63-.35.18-.15.33-.33.43-.54s.16-.44.16-.69c0-.27-.06-.5-.17-.71s-.26-.39-.45-.54c-.19-.15-.4-.26-.63-.34-.23-.08-.47-.12-.71-.12s-.5.04-.73.12c-.24.08-.44.2-.63.35s-.33.33-.43.54-.16.44-.16.7ZM203.55,121.47v.62l-1.62,1.39v-.62l1.62-1.39Z"/>
      <path class="cls-7" d="M201.9,126.72c0-.4.07-.73.21-1s.32-.49.56-.65c.24-.16.5-.28.8-.36.3-.07.61-.11.92-.11h2.51v.63h-2.51c-.24,0-.48.02-.71.07-.23.05-.44.13-.62.24-.18.11-.33.26-.43.46-.11.19-.16.43-.16.71s.05.53.16.72c.11.19.26.34.44.45.18.11.39.19.62.24s.46.07.7.07h2.51v.63h-2.51c-.34,0-.65-.04-.96-.12-.3-.08-.57-.2-.79-.37-.23-.17-.41-.39-.54-.65s-.2-.59-.2-.98Z"/>
      <path class="cls-7" d="M201.93,130.23h4.97v.63h-4.97v-.63Z"/>
      <path class="cls-7" d="M201.93,132.33h4.97v.63h-4.41v2.77h-.56v-3.4Z"/>
      <path class="cls-7" d="M201.93,136.7h4.97v.63h-4.97v-.63Z"/>
      <path class="cls-7" d="M203.21,142.62c-.26,0-.48-.07-.67-.2-.19-.13-.34-.31-.45-.53-.11-.22-.16-.47-.16-.73v-2.36h4.97v2.47c0,.23-.06.44-.19.61-.12.17-.28.3-.48.39-.19.09-.4.14-.61.14-.24,0-.47-.06-.68-.19s-.37-.3-.47-.53c-.08.28-.24.51-.47.68-.23.17-.49.25-.8.25ZM206.35,139.43h-1.66v1.58c0,.15.04.28.11.4s.17.21.3.27c.13.07.26.1.41.1.16,0,.3-.03.42-.09.12-.06.22-.15.3-.26.07-.11.11-.23.11-.37v-1.62ZM203.32,141.98c.15,0,.3-.03.43-.1.13-.07.24-.16.31-.27.08-.11.12-.25.12-.4v-1.78h-1.71v1.73c0,.15.04.29.12.42.08.12.18.22.31.29s.27.11.42.11Z"/>
      <path class="cls-7" d="M201.93,143.78h4.97v2.13c0,.22-.05.42-.14.6s-.21.34-.36.48c-.15.14-.32.24-.51.31s-.38.11-.58.11c-.23,0-.45-.04-.65-.13-.21-.09-.38-.21-.52-.36-.15-.16-.25-.34-.3-.55l-1.9,1.2v-.71l1.79-1.13v-1.32h-1.79v-.63ZM204.28,144.41v1.5c0,.17.05.32.14.45s.22.23.38.3.33.11.51.11.36-.04.51-.13.28-.19.37-.33c.09-.14.14-.28.14-.45v-1.46h-2.06Z"/>
      <path class="cls-7" d="M201.93,148.66h4.97v.63h-4.97v-.63Z"/>
      <path class="cls-7" d="M201.9,152.81c0-.4.07-.73.21-1s.32-.49.56-.65c.24-.16.5-.28.8-.36.3-.07.61-.11.92-.11h2.51v.63h-2.51c-.24,0-.48.02-.71.07-.23.05-.44.13-.62.24-.18.11-.33.26-.43.46-.11.19-.16.43-.16.71s.05.53.16.72c.11.19.26.34.44.45.18.11.39.19.62.24s.46.07.7.07h2.51v.63h-2.51c-.34,0-.65-.04-.96-.12-.3-.08-.57-.2-.79-.37-.23-.17-.41-.39-.54-.65s-.2-.59-.2-.98Z"/>
      <path class="cls-7" d="M201.93,160.62h3.79l-2.92-1.64v-.38l2.92-1.65h-3.79v-.63h4.97v.67l-3.23,1.8,3.23,1.81v.66h-4.97v-.63Z"/>
    </g>
    <g>
      <path class="cls-7" d="M73.11,157.88h.56v3.37h-4.97v-3.31h.56v2.68s1.61,0,1.61,0v-2.33h.52v2.33s1.71,0,1.71,0v-2.74Z"/>
      <path class="cls-7" d="M73.71,154.82c0,.35-.07.67-.21.95-.14.28-.33.53-.57.74-.24.21-.51.37-.81.48-.3.11-.61.17-.93.17s-.65-.06-.95-.18c-.3-.12-.57-.28-.8-.5-.24-.21-.42-.46-.56-.75-.14-.28-.21-.59-.21-.93s.07-.67.22-.95c.15-.28.34-.53.58-.73.24-.21.51-.36.81-.48.3-.11.6-.17.92-.17.33,0,.65.06.95.17.3.12.57.28.8.49.24.21.42.46.56.75s.2.59.2.93ZM73.14,154.81c0-.27-.06-.5-.17-.71-.11-.21-.26-.39-.45-.54s-.4-.26-.63-.34-.47-.12-.71-.12c-.25,0-.5.04-.73.12-.24.08-.44.2-.63.35-.18.15-.33.33-.43.54s-.16.44-.16.69c0,.27.06.5.17.71s.26.39.45.54c.19.15.4.26.63.34.23.08.47.12.71.12s.5-.04.73-.12c.24-.08.44-.2.63-.35s.33-.33.43-.54.16-.44.16-.7ZM72.05,154.53v-.62s1.62-1.39,1.62-1.39v.62s-1.62,1.39-1.62,1.39Z"/>
      <path class="cls-7" d="M73.71,149.28c0,.4-.07.73-.21,1s-.32.49-.56.65c-.24.16-.5.28-.8.36-.3.07-.61.11-.92.11h-2.51v-.63h2.51c.24,0,.48-.02.71-.07.23-.05.44-.13.62-.24.18-.11.33-.26.43-.46.11-.19.16-.43.16-.71s-.05-.53-.16-.72c-.11-.19-.26-.34-.44-.45-.18-.11-.39-.19-.62-.24s-.46-.07-.7-.07h-2.51v-.63h2.51c.34,0,.65.04.96.12.3.08.57.2.79.37.23.17.41.39.54.65s.2.59.2.98Z"/>
      <path class="cls-7" d="M73.67,145.77h-4.97v-.63h4.97v.63Z"/>
      <path class="cls-7" d="M73.67,143.67h-4.97v-.63h4.41s0-2.77,0-2.77h.56v3.4Z"/>
      <path class="cls-7" d="M73.67,139.3h-4.97v-.63h4.97v.63Z"/>
      <path class="cls-7" d="M72.39,133.38c.26,0,.48.07.67.2.19.13.34.31.45.53.11.22.16.47.16.73v2.36h-4.97v-2.47c0-.23.06-.44.19-.61.12-.17.28-.3.48-.39.19-.09.4-.14.61-.14.24,0,.47.06.68.19s.37.3.47.53c.08-.28.24-.51.47-.68.23-.17.49-.25.8-.25ZM69.25,136.57h1.66s0-1.58,0-1.58c0-.15-.04-.28-.11-.4s-.17-.21-.3-.27c-.13-.07-.26-.1-.41-.1-.16,0-.3.03-.42.09-.12.06-.22.15-.3.26-.07.11-.11.23-.11.37v1.62ZM72.28,134.02c-.15,0-.3.03-.43.1-.13.07-.24.16-.31.27-.08.11-.12.25-.12.4v1.78s1.71,0,1.71,0v-1.73c0-.15-.04-.29-.12-.42-.08-.12-.18-.22-.31-.29s-.27-.11-.42-.11Z"/>
      <path class="cls-7" d="M73.67,132.22h-4.97v-2.13c0-.22.05-.42.14-.6s.21-.34.36-.48c.15-.14.32-.24.51-.31s.38-.11.58-.11c.23,0,.45.04.65.13.21.09.38.21.52.36.15.16.25.34.3.55l1.9-1.2v.71s-1.79,1.13-1.79,1.13v1.32s1.79,0,1.79,0v.63ZM71.33,131.59v-1.5c0-.17-.05-.32-.14-.45s-.22-.23-.38-.3-.33-.11-.51-.11-.36.04-.51.13-.28.19-.37.33c-.09.14-.14.28-.14.45v1.46s2.06,0,2.06,0Z"/>
      <path class="cls-7" d="M73.67,127.34h-4.97v-.63h4.97v.63Z"/>
      <path class="cls-7" d="M73.71,123.19c0,.4-.07.73-.21,1s-.32.49-.56.65c-.24.16-.5.28-.8.36-.3.07-.61.11-.92.11h-2.51v-.63h2.51c.24,0,.48-.02.71-.07.23-.05.44-.13.62-.24.18-.11.33-.26.43-.46.11-.19.16-.43.16-.71s-.05-.53-.16-.72c-.11-.19-.26-.34-.44-.45-.18-.11-.39-.19-.62-.24s-.46-.07-.7-.07h-2.51v-.63h2.51c.34,0,.65.04.96.12.3.08.57.2.79.37.23.17.41.39.54.65s.2.59.2.98Z"/>
      <path class="cls-7" d="M73.67,115.38h-3.79s2.92,1.64,2.92,1.64v.38s-2.92,1.65-2.92,1.65h3.79v.63h-4.97v-.67s3.23-1.8,3.23-1.8l-3.23-1.81v-.66h4.97v.63Z"/>
    </g>
    <g>
      <path class="cls-7" d="M157.88,202.83v-.56h3.37v4.97h-3.31v-.56h2.68v-1.61h-2.33v-.52h2.33v-1.71h-2.74Z"/>
      <path class="cls-7" d="M154.82,202.24c.35,0,.67.07.95.21.28.14.53.33.74.57s.37.51.48.81c.11.3.17.61.17.93s-.06.65-.18.95c-.12.3-.28.57-.5.8-.21.24-.46.42-.75.56s-.6.21-.93.21-.67-.07-.95-.22c-.28-.15-.53-.34-.74-.58-.21-.24-.36-.51-.48-.81-.11-.3-.17-.6-.17-.92,0-.33.06-.65.18-.95.12-.3.28-.57.49-.8.21-.24.46-.42.75-.56s.6-.2.93-.2ZM154.81,202.8c-.27,0-.5.06-.71.17-.21.11-.39.26-.54.45s-.26.4-.34.63c-.08.23-.12.47-.12.71,0,.25.04.5.12.73.08.24.2.44.35.63.15.18.33.33.54.43.21.11.44.16.69.16.27,0,.5-.06.71-.17s.39-.26.54-.45c.15-.19.26-.4.34-.63.08-.23.12-.47.12-.71s-.04-.5-.12-.73-.2-.44-.35-.63-.33-.33-.54-.43-.44-.16-.7-.16ZM154.53,203.9h-.62l-1.39-1.62h.62l1.39,1.62Z"/>
      <path class="cls-7" d="M149.28,202.24c.4,0,.73.07,1,.21.27.14.49.32.65.56.16.24.28.5.36.8.07.3.11.61.11.92v2.51h-.63v-2.51c0-.24-.02-.48-.07-.71-.05-.23-.13-.44-.24-.62-.11-.18-.26-.33-.46-.43s-.43-.16-.71-.16-.53.05-.72.16c-.19.11-.34.26-.46.44-.11.18-.19.39-.24.62-.05.23-.07.46-.07.7v2.51h-.63v-2.51c0-.34.04-.65.12-.96.08-.3.2-.57.37-.79s.39-.41.65-.54c.27-.13.59-.2.98-.2Z"/>
      <path class="cls-7" d="M145.77,202.27v4.97h-.63v-4.97h.63Z"/>
      <path class="cls-7" d="M143.67,202.27v4.97h-.63v-4.41h-2.77v-.56h3.4Z"/>
      <path class="cls-7" d="M139.3,202.27v4.97h-.63v-4.97h.63Z"/>
      <path class="cls-7" d="M133.38,203.55c0-.26.07-.48.2-.67.13-.19.31-.34.53-.45.22-.11.47-.16.73-.16h2.36v4.97h-2.47c-.23,0-.44-.06-.61-.19-.17-.12-.3-.28-.39-.48-.09-.19-.14-.4-.14-.61,0-.24.06-.47.19-.68.12-.21.3-.37.53-.47-.28-.08-.51-.24-.68-.47-.17-.23-.25-.49-.25-.8ZM136.57,206.7v-1.66h-1.58c-.15,0-.28.04-.4.11-.11.07-.21.17-.27.3-.07.13-.1.26-.1.41,0,.16.03.3.09.42.06.12.15.22.26.3.11.07.23.11.37.11h1.62ZM134.02,203.67c0,.15.03.3.1.43.07.13.16.24.27.31.11.08.25.12.4.12h1.78v-1.71h-1.73c-.15,0-.29.04-.42.12-.12.08-.22.18-.29.31-.07.13-.11.27-.11.42Z"/>
      <path class="cls-7" d="M132.22,202.27v4.97h-2.13c-.22,0-.42-.05-.6-.14-.18-.09-.34-.21-.48-.36-.14-.15-.24-.32-.31-.51s-.11-.38-.11-.58c0-.23.04-.45.13-.65.09-.21.21-.38.36-.52.16-.15.34-.25.55-.3l-1.2-1.9h.71l1.13,1.79h1.32v-1.79h.63ZM131.59,204.62h-1.5c-.17,0-.32.05-.45.14s-.23.22-.3.38-.11.33-.11.51.04.36.13.51.19.28.33.37.28.14.45.14h1.46v-2.06Z"/>
      <path class="cls-7" d="M127.34,202.27v4.97h-.63v-4.97h.63Z"/>
      <path class="cls-7" d="M123.19,202.24c.4,0,.73.07,1,.21.27.14.49.32.65.56.16.24.28.5.36.8.07.3.11.61.11.92v2.51h-.63v-2.51c0-.24-.02-.48-.07-.71-.05-.23-.13-.44-.24-.62-.11-.18-.26-.33-.46-.43s-.43-.16-.71-.16-.53.05-.72.16c-.19.11-.34.26-.46.44-.11.18-.19.39-.24.62-.05.23-.07.46-.07.7v2.51h-.63v-2.51c0-.34.04-.65.12-.96.08-.3.2-.57.37-.79s.39-.41.65-.54c.27-.13.59-.2.98-.2Z"/>
      <path class="cls-7" d="M115.38,202.27v3.79l1.64-2.92h.38l1.65,2.92v-3.79h.63v4.97h-.67l-1.8-3.23-1.81,3.23h-.66v-4.97h.63Z"/>
    </g>
    <polygon class="cls-1" points="231.29 232.52 231.57 227.79 226.56 232.8 231.29 232.52"/>
    <polygon class="cls-1" points="43.98 233 48.71 233.28 43.7 228.27 43.98 233"/>
    <polygon class="cls-1" points="43.98 45.28 43.7 50.01 48.71 45 43.98 45.28"/>
    <polygon class="cls-1" points="231.29 44.79 226.56 44.51 231.57 49.52 231.29 44.79"/>
  </g>
</svg>