<?xml version="1.0" encoding="UTF-8"?>
<svg id="Layer_2" xmlns="http://www.w3.org/2000/svg" viewBox="0 0 940.38 214.59">
  <g id="Layer_2-2" data-name="Layer_2">
    <g>
      <path d="M15.59,33.46v69.28H0V4.76h12.7l55.48,70.79V4.9h15.46v97.84h-13.39L15.59,33.46Z"/>
      <path d="M136.62,104.12c-5.71,0-10.81-.98-15.32-2.95-4.51-1.96-8.42-4.66-11.73-8.08s-5.87-7.35-7.66-11.78-2.69-9.11-2.69-14.04c0-6.82,1.56-13.06,4.69-18.7,3.13-5.64,7.52-10.15,13.18-13.51,5.66-3.37,12.17-5.05,19.53-5.05s14.19,1.71,19.67,5.13c5.47,3.42,9.73,7.9,12.77,13.46,3.04,5.56,4.55,11.52,4.55,17.9,0,1.09-.05,2.12-.14,3.08-.09.96-.19,1.71-.28,2.25h-57.96c.46,4.27,1.7,7.97,3.73,11.1,2.02,3.13,4.64,5.58,7.87,7.35,3.22,1.77,6.62,2.66,10.21,2.66,4.14,0,8.03-1.01,11.66-3.04,3.63-2.02,6.09-4.69,7.38-8l12.97,3.73c-1.57,3.5-3.96,6.65-7.18,9.45-3.22,2.81-6.97,5.02-11.25,6.62-4.28,1.61-8.95,2.42-14.01,2.42ZM114.95,61.89h43.61c-.37-4.15-1.54-7.76-3.52-10.82-1.98-3.07-4.58-5.48-7.8-7.24-3.22-1.76-6.72-2.64-10.49-2.64s-7.38.88-10.56,2.64-5.77,4.17-7.8,7.24c-2.02,3.07-3.17,6.67-3.45,10.82Z"/>
      <path d="M185.33,74.95V31.12h15.18v40.75c0,6.38,1.17,11.19,3.52,14.43,2.35,3.24,5.77,4.85,10.28,4.85,2.85,0,5.63-.59,8.35-1.77,2.71-1.18,5.2-2.93,7.45-5.24,2.25-2.31,4.07-5.1,5.45-8.37V31.12h15.18v54.55c0,1.64.32,2.85.97,3.62.64.78,1.7,1.21,3.17,1.3v12.14c-1.57.28-2.88.44-3.93.48-1.06.05-1.96.11-2.69.21-2.85-.09-5.2-.87-7.04-2.33-1.84-1.46-2.9-3.38-3.17-5.75l-.28-6.98c-3.13,5.02-7.29,8.91-12.49,11.64-5.2,2.74-10.88,4.11-17.04,4.11-7.54,0-13.25-2.46-17.11-7.4-3.86-4.93-5.8-12.19-5.8-21.78Z"/>
      <path d="M311.28,30.07c-.75-.06-1.48-.2-2.24-.2h-2.41c-4.42.28-8.65,1.91-12.7,4.9-4.05,2.99-7.36,6.92-9.93,11.8v-15.46h-13.94v71.63h15.18v-44.16c1.93-4.7,5.17-8.33,9.73-10.91,4.55-2.57,9.73-3.91,15.52-4l.02-.05c.74-4.48,1.91-8.82,3.47-12.98-.86-.28-1.76-.5-2.7-.57Z"/>
      <path d="M516.18,75.41c0,4.85-.95,9.06-2.83,12.64-1.89,3.57-4.49,6.47-7.8,8.72-3.31,2.24-7.13,3.91-11.45,5.01-4.33,1.1-8.97,1.65-13.94,1.65s-9.73-.53-14.56-1.59c-4.83-1.06-9.43-2.58-13.8-4.56-4.01-1.81-7.76-3.99-11.26-6.54,2.56-4.37,4.66-9.03,6.24-13.93,1.11,1.19,2.8,2.5,5.09,3.91,2.3,1.43,4.94,2.79,7.93,4.08,2.99,1.29,6.26,2.37,9.8,3.24s7.15,1.31,10.83,1.31c6.17,0,10.88-1.07,14.15-3.21,3.26-2.15,4.9-5.27,4.9-9.37,0-3.21-1.08-5.8-3.25-7.77-2.16-1.97-5.24-3.64-9.24-5.01-4-1.38-8.81-2.75-14.42-4.13-6.44-1.65-11.82-3.52-16.15-5.63-2.54-1.24-4.69-2.66-6.47-4.28-1.25-1.14-2.31-2.37-3.19-3.69-2.12-3.21-3.17-7.38-3.17-12.51,0-2.4.22-4.65.64-6.77.72-3.56,2.05-6.73,3.98-9.52,3.08-4.44,7.34-7.78,12.77-10.03,5.42-2.24,11.45-3.36,18.07-3.36,4.42,0,8.63.48,12.63,1.44,4,.97,7.73,2.28,11.18,3.94,3.45,1.65,6.51,3.54,9.18,5.66l-6.9,12.69c-.83-1.01-2.14-2.09-3.94-3.24-1.79-1.15-3.86-2.21-6.21-3.18-2.34-.96-4.92-1.79-7.73-2.48-2.8-.69-5.68-1.03-8.62-1.03-6.44,0-11.23,1.19-14.35,3.57-3.13,2.38-4.69,5.67-4.69,9.88,0,3.12.87,5.59,2.62,7.42,1.74,1.83,4.44,3.32,8.07,4.46,3.63,1.15,8.12,2.36,13.46,3.64,6.71,1.56,12.48,3.44,17.31,5.64,4.83,2.19,8.56,5.08,11.18,8.65s3.94,8.33,3.94,14.28Z"/>
      <path d="M570.55,104.12c-5.8,0-10.9-1.37-15.32-4.1-4.42-2.73-7.91-6.24-10.49-10.53v42.64h-15.18V31.12h13.39v12.98c2.76-4.28,6.35-7.7,10.76-10.25,4.42-2.55,9.34-3.83,14.77-3.83,4.97,0,9.52.98,13.66,2.94s7.73,4.67,10.76,8.14c3.04,3.46,5.4,7.4,7.11,11.82,1.7,4.42,2.55,9.09,2.55,14.02,0,6.84-1.36,13.1-4.07,18.8-2.71,5.7-6.49,10.19-11.32,13.47-4.83,3.28-10.37,4.92-16.63,4.92ZM565.58,91.15c3.31,0,6.28-.68,8.9-2.04s4.85-3.17,6.69-5.44c1.84-2.27,3.26-4.83,4.28-7.69,1.01-2.86,1.52-5.87,1.52-9.05,0-3.35-.55-6.46-1.66-9.32-1.1-2.86-2.69-5.37-4.76-7.55-2.07-2.18-4.46-3.9-7.18-5.17-2.71-1.27-5.64-1.91-8.76-1.91-2.02,0-4.07.36-6.14,1.08-2.07.72-4.07,1.72-6,2.98-1.93,1.27-3.59,2.73-4.97,4.41-1.38,1.67-2.3,3.55-2.76,5.63v18.6c1.29,2.89,2.99,5.49,5.11,7.8,2.12,2.31,4.55,4.16,7.31,5.56s5.57,2.1,8.42,2.1Z"/>
      <path d="M680.95,102.74h-15.04v-39.97c0-6.46-1.22-11.28-3.66-14.46-2.44-3.18-5.82-4.77-10.14-4.77-2.76,0-5.54.72-8.35,2.17-2.81,1.45-5.29,3.41-7.45,5.9-2.16,2.49-3.79,5.36-4.9,8.61v42.51h-15.18V2h15.18v43.46c2.76-4.83,6.53-8.61,11.32-11.35,4.78-2.73,9.94-4.1,15.46-4.1,4.6,0,8.35.78,11.25,2.33,2.9,1.55,5.2,3.67,6.9,6.36,1.7,2.69,2.9,5.76,3.59,9.23s1.04,7.2,1.04,11.21v43.61Z"/>
      <path d="M731.32,104.12c-5.71,0-10.81-.98-15.32-2.95-4.51-1.96-8.42-4.66-11.73-8.08s-5.87-7.35-7.66-11.78-2.69-9.11-2.69-14.04c0-6.82,1.56-13.06,4.69-18.7,3.13-5.64,7.52-10.15,13.18-13.51,5.66-3.37,12.17-5.05,19.53-5.05s14.19,1.71,19.67,5.13c5.47,3.42,9.73,7.9,12.77,13.46,3.04,5.56,4.55,11.52,4.55,17.9,0,1.09-.05,2.12-.14,3.08-.09.96-.19,1.71-.28,2.25h-57.96c.46,4.27,1.7,7.97,3.73,11.1,2.02,3.13,4.64,5.58,7.87,7.35,3.22,1.77,6.62,2.66,10.21,2.66,4.14,0,8.03-1.01,11.66-3.04,3.63-2.02,6.09-4.69,7.38-8l12.97,3.73c-1.57,3.5-3.96,6.65-7.18,9.45-3.22,2.81-6.97,5.02-11.25,6.62-4.28,1.61-8.95,2.42-14.01,2.42ZM709.65,61.89h43.61c-.37-4.15-1.54-7.76-3.52-10.82-1.98-3.07-4.58-5.48-7.8-7.24-3.22-1.76-6.72-2.64-10.49-2.64s-7.38.88-10.56,2.64-5.77,4.17-7.8,7.24c-2.02,3.07-3.17,6.67-3.45,10.82Z"/>
      <path d="M821.15,43.68c-5.8.09-10.97,1.43-15.52,4-4.55,2.58-7.8,6.21-9.73,10.9v44.16h-15.18V31.12h13.94v15.46c2.57-4.88,5.89-8.81,9.94-11.8,4.05-2.99,8.28-4.62,12.7-4.9h2.41c.6,0,1.08.05,1.45.14v13.66Z"/>
      <path d="M865.03,104.12c-5.71,0-10.81-.98-15.32-2.95-4.51-1.96-8.42-4.66-11.73-8.08s-5.87-7.35-7.66-11.78-2.69-9.11-2.69-14.04c0-6.82,1.56-13.06,4.69-18.7,3.13-5.64,7.52-10.15,13.18-13.51,5.66-3.37,12.17-5.05,19.53-5.05s14.19,1.71,19.67,5.13c5.47,3.42,9.73,7.9,12.77,13.46,3.04,5.56,4.55,11.52,4.55,17.9,0,1.09-.05,2.12-.14,3.08-.09.96-.19,1.71-.28,2.25h-57.96c.46,4.27,1.7,7.97,3.73,11.1,2.02,3.13,4.64,5.58,7.87,7.35,3.22,1.77,6.62,2.66,10.21,2.66,4.14,0,8.03-1.01,11.66-3.04,3.63-2.02,6.09-4.69,7.38-8l12.97,3.73c-1.57,3.5-3.96,6.65-7.18,9.45-3.22,2.81-6.97,5.02-11.25,6.62-4.28,1.61-8.95,2.42-14.01,2.42ZM843.37,61.89h43.61c-.37-4.15-1.54-7.76-3.52-10.82-1.98-3.07-4.58-5.48-7.8-7.24-3.22-1.76-6.72-2.64-10.49-2.64s-7.38.88-10.56,2.64-5.77,4.17-7.8,7.24c-2.02,3.07-3.17,6.67-3.45,10.82Z"/>
      <g>
        <path d="M2.91,169.04c0-3.38.58-6.69,1.75-9.94,1.17-3.25,2.87-6.21,5.11-8.89,2.23-2.68,4.99-4.81,8.27-6.4,3.28-1.59,6.99-2.38,11.15-2.38,4.94,0,9.17,1.13,12.67,3.39,3.51,2.26,6.1,5.16,7.76,8.7l-4.29,2.65c-1.2-2.44-2.7-4.38-4.52-5.81-1.82-1.43-3.76-2.46-5.81-3.08-2.05-.62-4.1-.94-6.12-.94-3.33,0-6.27.66-8.81,1.99-2.55,1.33-4.69,3.09-6.44,5.3-1.74,2.21-3.06,4.68-3.94,7.41-.88,2.73-1.33,5.5-1.33,8.31,0,3.07.52,6.01,1.56,8.81,1.04,2.81,2.5,5.29,4.37,7.45,1.87,2.16,4.07,3.88,6.59,5.15,2.52,1.27,5.27,1.91,8.23,1.91,2.08,0,4.21-.36,6.4-1.09,2.18-.73,4.22-1.84,6.12-3.35,1.9-1.51,3.42-3.46,4.56-5.85l4.52,2.34c-1.14,2.76-2.91,5.1-5.3,7.02-2.39,1.92-5.06,3.38-8,4.37-2.94.99-5.81,1.48-8.62,1.48-3.8,0-7.28-.82-10.45-2.46-3.17-1.64-5.92-3.82-8.23-6.55-2.31-2.73-4.1-5.8-5.34-9.2-1.25-3.4-1.87-6.85-1.87-10.33Z"/>
        <path d="M81.22,161.24c-3.54.11-6.64,1.09-9.32,2.96-2.68,1.87-4.56,4.45-5.66,7.72v25.27h-5.3v-40.48h4.99v9.59c1.4-2.86,3.26-5.17,5.58-6.94,2.31-1.77,4.77-2.75,7.37-2.96.52-.05.98-.08,1.36-.08s.71.03.98.08v4.84Z"/>
        <path d="M90.27,148.06v-7.8h5.3v7.8h-5.3ZM90.27,197.2v-40.64h5.3v40.64h-5.3Z"/>
        <path d="M128.72,195.56c-.42.16-1.07.44-1.95.86-.88.42-1.95.78-3.2,1.09-1.25.31-2.6.47-4.06.47s-2.92-.29-4.25-.86c-1.33-.57-2.38-1.45-3.16-2.62-.78-1.17-1.17-2.62-1.17-4.35v-29.22h-5.62v-4.21h5.62v-13.73h5.3v13.73h9.36v4.21h-9.36v27.75c.1,1.46.64,2.56,1.6,3.29.96.73,2.07,1.1,3.31,1.1,1.46,0,2.78-.25,3.98-.74,1.2-.49,1.92-.84,2.18-1.05l1.4,4.29Z"/>
        <path d="M137.3,148.06v-7.8h5.3v7.8h-5.3ZM137.3,197.2v-40.64h5.3v40.64h-5.3Z"/>
        <path d="M173.88,197.98c-2.96,0-5.68-.56-8.15-1.67-2.47-1.11-4.63-2.65-6.47-4.62-1.85-1.96-3.28-4.21-4.29-6.75-1.01-2.53-1.52-5.22-1.52-8.07,0-3.83.86-7.32,2.57-10.47,1.72-3.15,4.11-5.66,7.18-7.52,3.07-1.86,6.6-2.79,10.61-2.79,3.8,0,7.15.87,10.06,2.61,2.91,1.74,5.07,4.1,6.47,7.06l-5.15,1.64c-1.14-2.08-2.74-3.71-4.8-4.88-2.06-1.17-4.33-1.75-6.83-1.75-2.7,0-5.17.7-7.41,2.09-2.24,1.39-4.02,3.3-5.34,5.73-1.33,2.43-1.99,5.19-1.99,8.29s.68,5.81,2.03,8.29c1.35,2.48,3.15,4.45,5.38,5.92,2.24,1.47,4.71,2.21,7.41,2.21,1.77,0,3.47-.31,5.11-.94s3.07-1.47,4.29-2.54c1.22-1.06,2.04-2.22,2.46-3.47l5.23,1.56c-.73,1.92-1.94,3.65-3.63,5.19-1.69,1.53-3.67,2.73-5.93,3.59s-4.69,1.29-7.29,1.29Z"/>
        <path d="M197.75,185.58c0-2.53.73-4.71,2.18-6.55,1.46-1.83,3.47-3.26,6.05-4.26,2.57-1.01,5.55-1.51,8.93-1.51,1.98,0,4.03.16,6.16.47,2.13.31,4.03.78,5.69,1.4v-3.42c0-3.41-1.01-6.12-3.04-8.14-2.03-2.02-4.84-3.02-8.42-3.02-2.18,0-4.33.4-6.44,1.21-2.11.81-4.3,1.99-6.59,3.55l-2.03-3.74c2.65-1.82,5.25-3.18,7.8-4.1,2.55-.91,5.15-1.36,7.8-1.36,4.99,0,8.94,1.42,11.86,4.26,2.91,2.84,4.37,6.77,4.37,11.78v18.68c0,.72.16,1.25.47,1.59.31.34.81.53,1.48.58v4.21c-.57.05-1.07.1-1.48.16-.42.05-.73.05-.94,0-1.3-.05-2.29-.47-2.96-1.25-.68-.78-1.04-1.61-1.09-2.5l-.08-2.96c-1.82,2.34-4.19,4.15-7.1,5.42-2.91,1.27-5.88,1.91-8.89,1.91-2.6,0-4.95-.56-7.06-1.67-2.11-1.11-3.74-2.61-4.91-4.5-1.17-1.89-1.75-3.97-1.75-6.24ZM224.97,188.67c.57-.72,1.01-1.42,1.33-2.09.31-.67.47-1.26.47-1.78v-5.88c-1.77-.67-3.6-1.18-5.5-1.54-1.9-.36-3.81-.54-5.73-.54-3.8,0-6.86.75-9.2,2.24-2.34,1.49-3.51,3.53-3.51,6.11,0,1.5.39,2.9,1.17,4.21.78,1.31,1.92,2.4,3.43,3.25,1.51.85,3.28,1.28,5.3,1.28,2.55,0,4.93-.49,7.14-1.47,2.21-.98,3.91-2.24,5.11-3.79Z"/>
        <path d="M245.72,140.26h5.3v48.02c0,2.04.36,3.38,1.09,4,.73.63,1.61.94,2.65.94.94,0,1.87-.1,2.81-.31.94-.21,1.74-.42,2.42-.62l.94,4.29c-.99.42-2.2.75-3.63,1.01-1.43.26-2.67.39-3.71.39-2.39,0-4.3-.71-5.73-2.12-1.43-1.41-2.15-3.35-2.15-5.8v-49.8Z"/>
        <path d="M330.89,146.65h-19.73v50.54h-5.46v-50.54h-19.73v-4.84h44.93v4.84Z"/>
        <path d="M374.18,197.2h-5.3v-22.55c0-4.55-.81-7.97-2.42-10.27-1.61-2.3-3.93-3.45-6.94-3.45-1.98,0-3.94.5-5.89,1.51-1.95,1.01-3.67,2.37-5.15,4.1-1.48,1.73-2.54,3.7-3.16,5.92v24.74h-5.3v-56.94h5.3v25.68c1.61-3,3.86-5.39,6.75-7.17,2.89-1.78,5.97-2.68,9.24-2.68,2.34,0,4.33.41,5.97,1.24,1.64.83,2.96,2.03,3.98,3.61,1.01,1.58,1.76,3.41,2.22,5.51s.7,4.46.7,7.1v23.66Z"/>
        <path d="M387.44,148.06v-7.8h5.3v7.8h-5.3ZM387.44,197.2v-40.64h5.3v40.64h-5.3Z"/>
        <path d="M440.56,197.2h-5.3v-22.55c0-4.75-.7-8.23-2.11-10.42s-3.61-3.29-6.63-3.29c-2.08,0-4.13.5-6.16,1.51-2.03,1.01-3.81,2.37-5.34,4.1-1.53,1.73-2.64,3.7-3.32,5.92v24.74h-5.3v-40.48h4.84v9.23c1.09-1.96,2.52-3.68,4.29-5.16,1.77-1.47,3.77-2.62,6.01-3.45,2.24-.83,4.55-1.24,6.94-1.24,2.24,0,4.13.41,5.69,1.24,1.56.83,2.81,2,3.74,3.53.94,1.53,1.61,3.36,2.03,5.51.42,2.15.62,4.54.62,7.17v23.66Z"/>
        <path d="M482.83,197.2l-15.05-20.79-8.66,8.1v12.69h-5.3v-56.94h5.3v38.57l23.01-22.11h5.85l-16.61,16.58,17.24,23.9h-5.77Z"/>
        <path d="M497.11,148.06v-7.8h5.3v7.8h-5.3ZM497.11,197.2v-40.64h5.3v40.64h-5.3Z"/>
        <path d="M550.22,197.2h-5.3v-22.55c0-4.75-.7-8.23-2.11-10.42s-3.61-3.29-6.63-3.29c-2.08,0-4.13.5-6.16,1.51-2.03,1.01-3.81,2.37-5.34,4.1-1.53,1.73-2.64,3.7-3.32,5.92v24.74h-5.3v-40.48h4.84v9.23c1.09-1.96,2.52-3.68,4.29-5.16,1.77-1.47,3.77-2.62,6.01-3.45,2.24-.83,4.55-1.24,6.94-1.24,2.24,0,4.13.41,5.69,1.24,1.56.83,2.81,2,3.74,3.53.94,1.53,1.61,3.36,2.03,5.51.42,2.15.62,4.54.62,7.17v23.66Z"/>
        <path d="M579.79,197.98c-2.76,0-5.3-.57-7.64-1.72-2.34-1.14-4.36-2.69-6.04-4.64-1.69-1.95-3-4.17-3.94-6.67s-1.4-5.07-1.4-7.72c0-2.86.45-5.55,1.36-8.07.91-2.52,2.21-4.77,3.9-6.75,1.69-1.98,3.68-3.52,5.97-4.64,2.29-1.12,4.84-1.68,7.64-1.68,3.48,0,6.51.87,9.09,2.61,2.57,1.74,4.74,3.91,6.51,6.51v-8.5h4.76v40.68c0,3.73-.9,6.88-2.69,9.45-1.79,2.57-4.21,4.5-7.25,5.79-3.04,1.3-6.36,1.94-9.95,1.94-4.63,0-8.37-.83-11.23-2.5-2.86-1.67-5.2-3.9-7.02-6.71l3.28-2.57c1.61,2.55,3.76,4.45,6.44,5.69,2.68,1.25,5.52,1.87,8.54,1.87,2.65,0,5.08-.47,7.29-1.42,2.21-.94,3.98-2.36,5.3-4.25,1.33-1.89,1.99-4.26,1.99-7.13v-8.03c-1.56,2.55-3.69,4.59-6.4,6.12-2.7,1.53-5.54,2.3-8.5,2.3ZM581.27,193.53c1.61,0,3.16-.29,4.64-.86s2.85-1.34,4.1-2.3c1.25-.96,2.29-2.04,3.12-3.24.83-1.2,1.35-2.42,1.56-3.67v-12.56c-.78-1.98-1.9-3.73-3.35-5.26-1.46-1.53-3.11-2.73-4.95-3.59-1.85-.86-3.76-1.29-5.73-1.29-2.29,0-4.33.48-6.12,1.44-1.79.96-3.3,2.24-4.52,3.82-1.22,1.59-2.17,3.37-2.85,5.34-.68,1.98-1.01,3.95-1.01,5.93,0,2.18.39,4.25,1.17,6.2.78,1.95,1.86,3.69,3.24,5.23,1.38,1.53,2.99,2.72,4.84,3.55,1.85.83,3.81,1.25,5.89,1.25Z"/>
        <path d="M685.63,197.2v-45.08l-20.05,35.02h-3.43l-20.12-35.02v45.08h-5.46v-55.38h5.62l21.61,37.91,21.76-37.91h5.54v55.38h-5.46Z"/>
        <path d="M723.23,197.98c-2.96,0-5.68-.56-8.15-1.67-2.47-1.11-4.6-2.64-6.4-4.58-1.79-1.94-3.19-4.16-4.17-6.67-.99-2.51-1.48-5.16-1.48-7.95s.49-5.6,1.48-8.11c.99-2.51,2.39-4.73,4.21-6.67,1.82-1.94,3.96-3.46,6.44-4.58,2.47-1.11,5.16-1.67,8.07-1.67s5.59.56,8.03,1.67c2.44,1.11,4.58,2.64,6.4,4.58,1.82,1.94,3.22,4.16,4.21,6.67.99,2.51,1.48,5.21,1.48,8.11s-.5,5.44-1.48,7.95c-.99,2.51-2.38,4.73-4.17,6.67-1.79,1.94-3.93,3.47-6.4,4.58-2.47,1.11-5.16,1.67-8.07,1.67ZM708.41,177.19c0,3,.66,5.72,1.99,8.17,1.33,2.45,3.11,4.39,5.34,5.81,2.24,1.42,4.71,2.13,7.41,2.13s5.17-.72,7.41-2.17c2.23-1.45,4.03-3.42,5.38-5.92,1.35-2.5,2.03-5.25,2.03-8.25s-.68-5.65-2.03-8.13c-1.35-2.48-3.15-4.44-5.38-5.89-2.24-1.45-4.71-2.17-7.41-2.17s-5.17.75-7.41,2.25c-2.24,1.5-4.02,3.47-5.34,5.92-1.33,2.45-1.99,5.2-1.99,8.25Z"/>
        <path d="M751.46,177.11c0-3.83.79-7.33,2.38-10.51,1.59-3.18,3.78-5.73,6.59-7.64,2.81-1.91,6.01-2.87,9.59-2.87,3.38,0,6.41.9,9.09,2.69,2.68,1.79,4.77,3.97,6.28,6.51v-25.04h5.3v50.54c0,.73.16,1.26.47,1.6.31.34.78.53,1.4.58v4.21c-1.04.16-1.85.21-2.42.16-1.09-.05-2.05-.49-2.89-1.33-.83-.83-1.25-1.74-1.25-2.73v-3.98c-1.61,2.65-3.8,4.76-6.55,6.32-2.76,1.56-5.62,2.34-8.58,2.34-2.81,0-5.4-.57-7.76-1.71-2.37-1.14-4.42-2.69-6.16-4.65-1.74-1.96-3.09-4.2-4.06-6.71-.96-2.51-1.44-5.11-1.44-7.79ZM785.39,183.31v-12.47c-.68-1.86-1.77-3.55-3.28-5.07-1.51-1.52-3.21-2.74-5.11-3.64-1.9-.9-3.78-1.36-5.66-1.36-2.18,0-4.16.45-5.93,1.36-1.77.9-3.29,2.13-4.56,3.68-1.27,1.55-2.25,3.3-2.92,5.27-.68,1.96-1.01,3.98-1.01,6.04,0,2.17.38,4.23,1.13,6.2.75,1.96,1.83,3.71,3.24,5.23,1.4,1.52,3.02,2.7,4.84,3.52,1.82.83,3.79,1.24,5.93,1.24,1.35,0,2.76-.26,4.21-.77,1.46-.52,2.85-1.23,4.17-2.13,1.33-.9,2.43-1.97,3.31-3.21.88-1.24,1.43-2.53,1.64-3.87Z"/>
        <path d="M822.21,197.98c-2.91,0-5.62-.56-8.11-1.67s-4.65-2.64-6.47-4.58c-1.82-1.94-3.24-4.18-4.25-6.72-1.01-2.54-1.52-5.26-1.52-8.16,0-3.77.87-7.22,2.61-10.37,1.74-3.15,4.15-5.66,7.22-7.55,3.07-1.88,6.55-2.83,10.45-2.83s7.5.96,10.49,2.87c2.99,1.91,5.34,4.43,7.06,7.55,1.72,3.12,2.57,6.55,2.57,10.26v1.2c0,.39-.03.68-.08.89h-34.79c.26,2.9,1.08,5.47,2.46,7.72,1.38,2.25,3.17,4.04,5.38,5.35,2.21,1.32,4.61,1.98,7.21,1.98s5.16-.68,7.53-2.03c2.37-1.35,4.02-3.12,4.95-5.3l4.6,1.25c-.83,1.92-2.11,3.67-3.82,5.23s-3.73,2.77-6.04,3.63c-2.31.86-4.8,1.29-7.45,1.29ZM807.23,175.05h30.03c-.21-2.93-1-5.51-2.38-7.72-1.38-2.21-3.17-3.95-5.38-5.21-2.21-1.26-4.64-1.89-7.29-1.89s-5.07.63-7.25,1.89c-2.18,1.26-3.97,3.01-5.34,5.25-1.38,2.24-2.17,4.8-2.38,7.68Z"/>
        <path d="M852.63,140.26h5.3v48.02c0,2.04.36,3.38,1.09,4,.73.63,1.61.94,2.65.94.94,0,1.87-.1,2.81-.31.94-.21,1.74-.42,2.42-.62l.94,4.29c-.99.42-2.2.75-3.63,1.01-1.43.26-2.67.39-3.71.39-2.39,0-4.3-.71-5.73-2.12-1.43-1.41-2.15-3.35-2.15-5.8v-49.8Z"/>
      </g>
      <g>
        <path d="M919.8,22.85V5.81h7.3c.75,0,1.44.16,2.06.47s1.17.73,1.63,1.25c.46.52.82,1.1,1.08,1.75.26.65.38,1.31.38,1.98,0,.78-.15,1.53-.44,2.23s-.71,1.3-1.25,1.8c-.54.5-1.16.84-1.88,1.03l4.13,6.53h-2.45l-3.89-6.12h-4.51v6.12h-2.16ZM921.96,14.81h5.16c.59,0,1.11-.16,1.55-.49.44-.33.78-.76,1.03-1.31s.37-1.13.37-1.75-.14-1.23-.43-1.76-.66-.96-1.13-1.28c-.46-.32-.98-.48-1.54-.48h-5.02v7.08Z"/>
        <path d="M925.72,2c7,0,12.67,5.67,12.67,12.67s-5.67,12.67-12.67,12.67-12.67-5.67-12.67-12.67,5.67-12.67,12.67-12.67M925.72,0c-8.09,0-14.67,6.58-14.67,14.67s6.58,14.67,14.67,14.67,14.67-6.58,14.67-14.67-6.58-14.67-14.67-14.67h0Z"/>
      </g>
      <g>
        <path d="M429.69,66.61c-5.16,22.41-25.23,39.12-49.2,39.12-27.88,0-50.48-22.6-50.48-50.48s22.6-50.48,50.48-50.48c14,0,26.66,5.7,35.81,14.9-.66-.67-2.27-1.06-3.14-1.41-1.09-.43-2.21-.79-3.35-1.07-2.21-.54-3.88-.99-6.52-1.15-3.36-.21-4.5-2.14-7.17-3.39-3.88-1.82-8.34-2.1-12.5-1.21-2.53.54-4.88,1.53-7.15,2.74-1.59.85-2.97,2.05-4.31,3.24-.6.53-1.23,1.29-1.95,1.64s-1.74.41-2.52.61c-3.44.86-6.9,1.94-9.79,4.07-5.4,3.97-9.91,10.96-8.58,18.07,1.25,6.67,6.37,12.1,13.03,12.64,2.21.18,5.1.11,6.11,1.96,2.85,5.22,8.12,8.88,13.64,11.18,2.75,1.14,5.89,2,8.9,2.01,2.25,0,6.1-.95,7.37,1.69,1.31,2.73-.09,6.41,1.6,7.59.58.4,1.28.5,1.96.58.77.09,1.58.19,2.35.16.82-.03,1.64-.08,2.46-.13,1.17-.06,1.92-.52,2.48-1.6.89-1.74,1.58-4.04,3.12-5.32,2.67-2.22,6.39-1.7,9.55-2.44,1.61-.38,3.24-.89,4.74-1.58.59-.27,2.89-1.23,3.05-1.92Z"/>
        <circle cx="402.56" cy="39.89" r="11.1"/>
        <circle cx="388.86" cy="23.09" r="5.7"/>
        <circle cx="423.99" cy="49.54" r="5.7"/>
        <circle cx="381.09" cy="50.99" r="5.7"/>
      </g>
    </g>
  </g>
</svg>